<svg viewBox="0,0,400,400" width="400" height="400" style="display: inline-block; background: rgb(250, 250, 250);" xmlns="http://www.w3.org/2000/svg" xmlns:xlink="http://www.w3.org/1999/xlink"><rect x="0" width="400" y="0" height="400" fill="#f9f9f9" stroke="none"/><g class="poly" fill="#f6f6f6" stroke="black" stroke-width="1" stroke-dasharray="3 3"/><g class="line" fill="none" stroke="black" stroke-width="1" stroke-linejoin="round" stroke-linecap="round"><path d="M78.3818652867441,390L79.74829675343838,384.9004083412361L81.11472822013268,379.80081668247215L82.48115968682697,374.7012250237082L83.84759115352126,369.6016333649442L85.21402262021554,364.5020417061802L86.58045408690985,359.40245004741627L87.94688555360413,354.30285838865234L89.31331702029841,349.20326672988836L90.67974848699271,344.1036750711245L92.04617995368702,339.00408341236044L93.4126114203813,333.9044917535966L94.77904288707558,328.8049000948326L96.14547435376988,323.7053084360686L97.51190582046416,318.6057167773046L98.87833728715846,313.50612511854075L100.24476875385275,308.40653345977677L99.32799567015549,303.2072549374897L98.41122258645825,298.0079764152027L97.49444950276101,292.80869789291563L96.57767641906378,287.60941937062853L95.66090333536651,282.4101408483415L94.74413025166928,277.21086232605444L93.82735716797202,272.01158380376734L92.91058408427477,266.8123052814803L89.88239544817965,262.48760371680197L86.85420681208454,258.16290215212354L83.82601817598939,253.8382005874452L80.79782953989428,249.5134990227668L76.22566074057372,246.87375613569873L71.65349194125317,244.23401324863056L66.39409620440783,243.77387574466007"/><path d="M66.39409620440783,243.77387574466007L61.13470046756248,243.31373824068947"/><path d="M61.13470046756248,243.31373824068947L56.562531668241924,240.67399535362136"/><path d="M71.65349194125317,244.23401324863056L67.08132314193261,241.59427036156242"/><path d="M67.08132314193261,241.59427036156242L62.509154342612035,238.9545274744943"/><path d="M62.509154342612035,238.9545274744943L59.480965706516926,234.6298259098159"/><path d="M71.65349194125317,244.23401324863056L67.08132314193261,241.59427036156242L62.509154342612035,238.9545274744943L57.24975860576671,238.49438997052377"/><path d="M57.24975860576671,238.49438997052377L51.99036286892136,238.03425246655323"/><path d="M51.99036286892136,238.03425246655323L47.4181940696008,235.39450957948506"/><path d="M62.509154342612035,238.9545274744943L59.480965706516926,234.6298259098159L56.452777070421796,230.30512434513753L53.42458843432668,225.98042278045918"/><path d="M53.42458843432668,225.98042278045918L50.396399798231556,221.65572121578083"/><path d="M50.396399798231556,221.65572121578083L49.479626714534305,216.45644269349378"/><path d="M80.79782953989428,249.5134990227668L77.76964090379916,245.18879745808843L74.74145226770403,240.8640958934101L70.16928346838348,238.22435300634197"/><path d="M70.16928346838348,238.22435300634197L65.59711466906292,235.58461011927383"/><path d="M65.59711466906292,235.58461011927383L62.568926032967795,231.25990855459548"/><path d="M74.74145226770403,240.8640958934101L71.71326363160891,236.53939432873173"/><path d="M71.71326363160891,236.53939432873173L68.68507499551379,232.21469276405338"/><path d="M68.68507499551379,232.21469276405338L67.76830191181654,227.0154142417663"/><path d="M74.74145226770403,240.8640958934101L71.71326363160891,236.53939432873173L68.68507499551379,232.21469276405338L64.11290619619324,229.57494987698524"/><path d="M64.11290619619324,229.57494987698524L59.54073739687268,226.93520698991708"/><path d="M59.54073739687268,226.93520698991708L56.51254876077755,222.61050542523873"/><path d="M68.68507499551379,232.21469276405338L67.76830191181654,227.0154142417663L66.8515288281193,221.81613571947923L65.93475574442205,216.6168571971922"/><path d="M65.93475574442205,216.6168571971922L65.01798266072481,211.41757867490517"/><path d="M65.01798266072481,211.41757867490517L66.38441412741909,206.3179870161412"/><path d="M80.79782953989428,249.5134990227668L77.76964090379916,245.18879745808843L74.74145226770403,240.8640958934101L71.71326363160891,236.53939432873173L68.68507499551379,232.21469276405338L64.11290619619324,229.57494987698524L59.54073739687268,226.93520698991708L54.28134166002734,226.47506948594656"/><path d="M54.28134166002734,226.47506948594656L49.02194592318199,226.014931981976"/><path d="M49.02194592318199,226.014931981976L44.44977712386142,223.37518909490785"/><path d="M59.54073739687268,226.93520698991708L54.96856859755212,224.29546410284894"/><path d="M54.96856859755212,224.29546410284894L50.396399798231556,221.65572121578083"/><path d="M50.396399798231556,221.65572121578083L47.36821116213643,217.33101965110248"/><path d="M59.54073739687268,226.93520698991708L54.96856859755212,224.29546410284894L50.396399798231556,221.65572121578083L45.137004061386214,221.1955837118103"/><path d="M45.137004061386214,221.1955837118103L39.87760832454087,220.73544620783974"/><path d="M39.87760832454087,220.73544620783974L35.305439525220315,218.09570332077163"/><path d="M50.396399798231556,221.65572121578083L47.36821116213643,217.33101965110248L44.34002252604131,213.0063180864241L41.311833889946186,208.68161652174572"/><path d="M41.311833889946186,208.68161652174572L38.28364525385106,204.35691495706735"/><path d="M38.28364525385106,204.35691495706735L37.36687217015382,199.15763643478033"/><path d="M68.68507499551379,232.21469276405338L67.76830191181654,227.0154142417663L66.8515288281193,221.81613571947923L65.93475574442205,216.6168571971922L65.01798266072481,211.41757867490517L64.10120957702756,206.2183001526181L63.18443649333031,201.01902163033108L60.156247857235186,196.6943200656527"/><path d="M60.156247857235186,196.6943200656527L57.12805922114006,192.36961850097435"/><path d="M57.12805922114006,192.36961850097435L56.21128613744282,187.1703399786873"/><path d="M63.18443649333031,201.01902163033108L62.267663409633066,195.81974310804404"/><path d="M62.267663409633066,195.81974310804404L61.35089032593581,190.620464585757"/><path d="M61.35089032593581,190.620464585757L62.7173217926301,185.52087292699304"/><path d="M63.18443649333031,201.01902163033108L62.267663409633066,195.81974310804404L61.35089032593581,190.620464585757L58.3227016898407,186.29576302107864"/><path d="M58.3227016898407,186.29576302107864L55.294513053745575,181.97106145640026"/><path d="M55.294513053745575,181.97106145640026L54.37773997004833,176.77178293411322"/><path d="M61.35089032593581,190.620464585757L62.7173217926301,185.52087292699304L64.08375325932441,180.4212812682291L65.45018472601869,175.32168960946518"/><path d="M65.45018472601869,175.32168960946518L66.81661619271298,170.22209795070123"/><path d="M66.81661619271298,170.22209795070123L70.21020423384412,166.17777721089843"/><path d="M92.91058408427477,266.8123052814803L91.99381100057754,261.61302675919325L91.07703791688027,256.4137482369062L90.16026483318304,251.2144697146191L89.2434917494858,246.01519119233205L86.21530311339066,241.6904896276537L83.18711447729554,237.36578806297533L78.61494567797499,234.7260451759072"/><path d="M78.61494567797499,234.7260451759072L74.04277687865442,232.08630228883905"/><path d="M74.04277687865442,232.08630228883905L71.0145882425593,227.7616007241607"/><path d="M83.18711447729554,237.36578806297533L80.15892584120041,233.04108649829698"/><path d="M80.15892584120041,233.04108649829698L77.1307372051053,228.71638493361857"/><path d="M77.1307372051053,228.71638493361857L76.21396412140804,223.51710641133155"/><path d="M83.18711447729554,237.36578806297533L80.15892584120041,233.04108649829698L77.1307372051053,228.71638493361857L72.55856840578474,226.07664204655043"/><path d="M72.55856840578474,226.07664204655043L67.98639960646418,223.43689915948232"/><path d="M67.98639960646418,223.43689915948232L64.95821097036905,219.11219759480397"/><path d="M77.1307372051053,228.71638493361857L76.21396412140804,223.51710641133155L75.29719103771079,218.31782788904448L74.38041795401357,213.11854936675743"/><path d="M74.38041795401357,213.11854936675743L73.46364487031632,207.9192708444704"/><path d="M73.46364487031632,207.9192708444704L74.8300763370106,202.81967918570643"/><path d="M89.2434917494858,246.01519119233205L88.32671866578855,240.81591267004504L87.4099455820913,235.61663414775796L84.38175694599617,231.29193258307959"/><path d="M84.38175694599617,231.29193258307959L81.35356830990104,226.9672310184012"/><path d="M81.35356830990104,226.9672310184012L80.43679522620381,221.76795249611413"/><path d="M87.4099455820913,235.61663414775796L86.49317249839405,230.41735562547086"/><path d="M86.49317249839405,230.41735562547086L85.5763994146968,225.21807710318384"/><path d="M85.5763994146968,225.21807710318384L86.94283088139109,220.11848544441992"/><path d="M87.4099455820913,235.61663414775796L86.49317249839405,230.41735562547086L85.5763994146968,225.21807710318384L82.54821077860167,220.89337553850547"/><path d="M82.54821077860167,220.89337553850547L79.52002214250656,216.56867397382712"/><path d="M79.52002214250656,216.56867397382712L78.60324905880931,211.36939545154004"/><path d="M85.5763994146968,225.21807710318384L86.94283088139109,220.11848544441992L88.30926234808538,215.018893785656L89.67569381477968,209.919302126892"/><path d="M89.67569381477968,209.919302126892L91.04212528147396,204.81971046812805"/><path d="M91.04212528147396,204.81971046812805L94.4357133226051,200.77538972832528"/><path d="M89.2434917494858,246.01519119233205L88.32671866578855,240.81591267004504L87.4099455820913,235.61663414775796L86.49317249839405,230.41735562547086L85.5763994146968,225.21807710318384L82.54821077860167,220.89337553850547L79.52002214250656,216.56867397382712L74.947853343186,213.92893108675895"/><path d="M74.947853343186,213.92893108675895L70.37568454386543,211.2891881996908"/><path d="M70.37568454386543,211.2891881996908L67.34749590777031,206.96448663501246"/><path d="M79.52002214250656,216.56867397382712L76.49183350641142,212.2439724091487"/><path d="M76.49183350641142,212.2439724091487L73.4636448703163,207.91927084447036"/><path d="M73.4636448703163,207.91927084447036L72.54687178661905,202.71999232218334"/><path d="M79.52002214250656,216.56867397382712L76.49183350641142,212.2439724091487L73.4636448703163,207.91927084447036L68.89147607099575,205.27952795740222"/><path d="M68.89147607099575,205.27952795740222L64.3193072716752,202.6397850703341"/><path d="M64.3193072716752,202.6397850703341L61.29111863558006,198.3150835056557"/><path d="M73.4636448703163,207.91927084447036L72.54687178661905,202.71999232218334L71.63009870292181,197.52071379989627L70.71332561922458,192.32143527760923"/><path d="M70.71332561922458,192.32143527760923L69.79655253552733,187.1221567553222"/><path d="M69.79655253552733,187.1221567553222L71.16298400222162,182.02256509655828"/><path d="M85.5763994146968,225.21807710318384L86.94283088139109,220.11848544441992L88.30926234808538,215.018893785656L89.67569381477968,209.919302126892L91.04212528147396,204.81971046812805L92.40855674816825,199.72011880936412L93.77498821486256,194.6205271506002L92.85821513116531,189.42124862831315"/><path d="M92.85821513116531,189.42124862831315L91.94144204746804,184.2219701060261"/><path d="M91.94144204746804,184.2219701060261L93.30787351416235,179.12237844726215"/><path d="M93.77498821486256,194.6205271506002L95.14141968155684,189.52093549183627"/><path d="M95.14141968155684,189.52093549183627L96.50785114825112,184.4213438330723"/><path d="M96.50785114825112,184.4213438330723L99.90143918938226,180.3770230932695"/><path d="M93.77498821486256,194.6205271506002L95.14141968155684,189.52093549183627L96.50785114825112,184.4213438330723L95.59107806455387,179.22206531078524"/><path d="M95.59107806455387,179.22206531078524L94.67430498085663,174.0227867884982"/><path d="M94.67430498085663,174.0227867884982L96.04073644755093,168.92319512973427"/><path d="M96.50785114825112,184.4213438330723L99.90143918938226,180.3770230932695L103.2950272305134,176.33270235346671L106.68861527164455,172.28838161366392"/><path d="M106.68861527164455,172.28838161366392L110.0822033127757,168.24406087386114"/><path d="M110.0822033127757,168.24406087386114L114.8670423814246,166.01285377311092"/><path d="M92.91058408427477,266.8123052814803L91.99381100057754,261.61302675919325L91.07703791688027,256.4137482369062L90.16026483318304,251.2144697146191L89.2434917494858,246.01519119233205L88.32671866578855,240.81591267004504L87.4099455820913,235.61663414775796L86.49317249839405,230.41735562547086L85.5763994146968,225.21807710318384L82.54821077860167,220.89337553850547L79.52002214250656,216.56867397382712L76.49183350641142,212.2439724091487L73.4636448703163,207.91927084447036L68.89147607099575,205.27952795740222L64.3193072716752,202.6397850703341L59.05991153482986,202.17964756636357"/><path d="M59.05991153482986,202.17964756636357L53.80051579798452,201.71951006239303"/><path d="M53.80051579798452,201.71951006239303L49.22834699866395,199.0797671753249"/><path d="M64.3193072716752,202.6397850703341L59.747138472354635,200.00004218326598"/><path d="M59.747138472354635,200.00004218326598L55.17496967303408,197.3602992961978"/><path d="M55.17496967303408,197.3602992961978L52.14678103693896,193.03559773151946"/><path d="M64.3193072716752,202.6397850703341L59.747138472354635,200.00004218326598L55.17496967303408,197.3602992961978L49.915573936188736,196.90016179222732"/><path d="M49.915573936188736,196.90016179222732L44.656178199343394,196.44002428825678"/><path d="M44.656178199343394,196.44002428825678L40.084009400022836,193.80028140118867"/><path d="M55.17496967303408,197.3602992961978L52.14678103693896,193.03559773151946L49.11859240084383,188.71089616684108L46.09040376474871,184.38619460216273"/><path d="M46.09040376474871,184.38619460216273L43.062215128653584,180.06149303748435"/><path d="M43.062215128653584,180.06149303748435L42.14544204495634,174.8622145151973"/><path d="M73.4636448703163,207.91927084447036L70.43545623422119,203.59456927979198L67.40726759812607,199.2698677151136L62.835098798805504,196.6301248280455"/><path d="M62.835098798805504,196.6301248280455L58.26292999948494,193.99038194097736"/><path d="M58.26292999948494,193.99038194097736L55.23474136338982,189.66568037629898"/><path d="M67.40726759812607,199.2698677151136L64.37907896203095,194.94516615043526"/><path d="M64.37907896203095,194.94516615043526L61.35089032593581,190.62046458575688"/><path d="M61.35089032593581,190.62046458575688L60.43411724223857,185.42118606346986"/><path d="M67.40726759812607,199.2698677151136L64.37907896203095,194.94516615043526L61.35089032593581,190.62046458575688L56.77872152661526,187.98072169868874"/><path d="M56.77872152661526,187.98072169868874L52.2065527272947,185.34097881162063"/><path d="M52.2065527272947,185.34097881162063L49.178364091199576,181.01627724694225"/><path d="M61.35089032593581,190.62046458575688L60.43411724223857,185.42118606346986L59.51734415854133,180.22190754118282L58.600571074844076,175.02262901889577"/><path d="M58.600571074844076,175.02262901889577L57.68379799114683,169.82335049660875"/><path d="M57.68379799114683,169.82335049660875L59.05022945784111,164.7237588378448"/><path d="M73.4636448703163,207.91927084447036L70.43545623422119,203.59456927979198L67.40726759812607,199.2698677151136L64.37907896203095,194.94516615043526L61.35089032593581,190.62046458575688L56.77872152661526,187.98072169868874L52.2065527272947,185.34097881162063L46.94715699044936,184.8808413076501"/><path d="M46.94715699044936,184.8808413076501L41.687761253604016,184.42070380367957"/><path d="M41.687761253604016,184.42070380367957L37.11559245428346,181.78096091661143"/><path d="M52.2065527272947,185.34097881162063L47.63438392797414,182.7012359245525"/><path d="M47.63438392797414,182.7012359245525L43.062215128653584,180.06149303748435"/><path d="M43.062215128653584,180.06149303748435L40.03402649255846,175.73679147280598"/><path d="M52.2065527272947,185.34097881162063L47.63438392797414,182.7012359245525L43.062215128653584,180.06149303748435L37.80281939180824,179.60135553351384"/><path d="M37.80281939180824,179.60135553351384L32.54342365496291,179.1412180295433"/><path d="M32.54342365496291,179.1412180295433L27.971254855642343,176.50147514247516"/><path d="M43.062215128653584,180.06149303748435L40.03402649255846,175.73679147280598L37.00583785646334,171.4120899081276L33.97764922036822,167.08738834344922"/><path d="M33.97764922036822,167.08738834344922L30.949460584273098,162.7626867787709"/><path d="M30.949460584273098,162.7626867787709L30.03268750057585,157.56340825648383"/><path d="M61.35089032593581,190.62046458575688L60.43411724223857,185.42118606346986L59.51734415854133,180.22190754118282L58.600571074844076,175.02262901889577L57.68379799114683,169.82335049660875L56.767024907449596,164.6240719743217L55.850251823752345,159.42479345203463L52.822063187657214,155.10009188735629"/><path d="M52.822063187657214,155.10009188735629L49.7938745515621,150.7753903226779"/><path d="M49.7938745515621,150.7753903226779L48.87710146786485,145.57611180039086"/><path d="M55.850251823752345,159.42479345203463L54.93347874005511,154.2255149297476"/><path d="M54.93347874005511,154.2255149297476L54.01670565635786,149.02623640746057"/><path d="M54.01670565635786,149.02623640746057L55.38313712305215,143.92664474869662"/><path d="M55.850251823752345,159.42479345203463L54.93347874005511,154.2255149297476L54.01670565635786,149.02623640746057L50.98851702026273,144.70153484278217"/><path d="M50.98851702026273,144.70153484278217L47.9603283841676,140.37683327810382"/><path d="M47.9603283841676,140.37683327810382L47.04355530047036,135.17755475581677"/><path d="M54.01670565635786,149.02623640746057L55.38313712305215,143.92664474869662L56.74956858974643,138.8270530899327L58.11600005644073,133.72746143116873"/><path d="M58.11600005644073,133.72746143116873L59.48243152313502,128.62786977240478"/><path d="M59.48243152313502,128.62786977240478L62.876019564266144,124.58354903260201"/><path d="M85.5763994146968,225.21807710318384L86.94283088139109,220.11848544441992L88.30926234808538,215.018893785656L89.67569381477968,209.919302126892L91.04212528147396,204.81971046812805L92.40855674816825,199.72011880936412L93.77498821486256,194.6205271506002L95.14141968155684,189.52093549183627L96.50785114825112,184.4213438330723L97.87428261494541,179.32175217430836L99.24071408163971,174.22216051554443L100.60714554833399,169.12256885678048L101.9735770150283,164.02297719801655L101.05680393133105,158.82369867572947L100.1400308476338,153.62442015344243L97.11184221153869,149.29971858876408"/><path d="M97.11184221153869,149.29971858876408L94.08365357544356,144.9750170240857"/><path d="M94.08365357544356,144.9750170240857L93.16688049174631,139.77573850179868"/><path d="M100.1400308476338,153.62442015344243L99.22325776393656,148.4251416311554"/><path d="M99.22325776393656,148.4251416311554L98.30648468023932,143.22586310886837"/><path d="M98.30648468023932,143.22586310886837L99.6729161469336,138.1262714501044"/><path d="M100.1400308476338,153.62442015344243L99.22325776393656,148.4251416311554L98.30648468023932,143.22586310886837L95.27829604414418,138.90116154419002"/><path d="M95.27829604414418,138.90116154419002L92.25010740804908,134.57645997951164"/><path d="M92.25010740804908,134.57645997951164L91.33333432435181,129.3771814572246"/><path d="M98.30648468023932,143.22586310886837L99.6729161469336,138.1262714501044L101.0393476136279,133.02667979134048L102.40577908032219,127.92708813257654"/><path d="M102.40577908032219,127.92708813257654L103.77221054701647,122.82749647381259"/><path d="M103.77221054701647,122.82749647381259L107.16579858814761,118.7831757340098"/><path d="M101.9735770150283,164.02297719801655L103.34000848172259,158.9233855392526L104.70643994841687,153.82379388048864L103.78966686471963,148.6245153582016"/><path d="M103.78966686471963,148.6245153582016L102.87289378102238,143.42523683591455"/><path d="M102.87289378102238,143.42523683591455L104.23932524771668,138.32564517715062"/><path d="M104.70643994841687,153.82379388048864L106.07287141511117,148.7242022217247"/><path d="M106.07287141511117,148.7242022217247L107.43930288180545,143.62461056296078"/><path d="M107.43930288180545,143.62461056296078L110.8328909229366,139.58028982315795"/><path d="M104.70643994841687,153.82379388048864L106.07287141511117,148.7242022217247L107.43930288180545,143.62461056296078L106.5225297981082,138.42533204067374"/><path d="M106.5225297981082,138.42533204067374L105.60575671441094,133.2260535183867"/><path d="M105.60575671441094,133.2260535183867L106.97218818110525,128.12646185962274"/><path d="M107.43930288180545,143.62461056296078L110.8328909229366,139.58028982315795L114.22647896406774,135.53596908335518L117.62006700519888,131.4916483435524"/><path d="M117.62006700519888,131.4916483435524L121.01365504633,127.44732760374961"/><path d="M121.01365504633,127.44732760374961L125.79849411497892,125.21612050299937"/><path d="M101.9735770150283,164.02297719801655L103.34000848172259,158.9233855392526L104.70643994841687,153.82379388048864L106.07287141511117,148.7242022217247L107.43930288180545,143.62461056296078L106.5225297981082,138.42533204067374L105.60575671441094,133.2260535183867L102.57756807831582,128.9013519537083"/><path d="M102.57756807831582,128.9013519537083L99.54937944222073,124.57665038902995"/><path d="M99.54937944222073,124.57665038902995L98.63260635852349,119.3773718667429"/><path d="M105.60575671441094,133.2260535183867L104.68898363071372,128.02677499609962"/><path d="M104.68898363071372,128.02677499609962L103.77221054701647,122.82749647381259"/><path d="M103.77221054701647,122.82749647381259L105.13864201371075,117.72790481504866"/><path d="M105.60575671441094,133.2260535183867L104.68898363071372,128.02677499609962L103.77221054701647,122.82749647381259L100.74402191092135,118.50279490913424"/><path d="M100.74402191092135,118.50279490913424L97.71583327482624,114.17809334445587"/><path d="M97.71583327482624,114.17809334445587L96.79906019112899,108.97881482216884"/><path d="M103.77221054701647,122.82749647381259L105.13864201371075,117.72790481504866L106.50507348040506,112.62831315628472L107.87150494709935,107.52872149752076"/><path d="M107.87150494709935,107.52872149752076L109.23793641379363,102.42912983875682"/><path d="M109.23793641379363,102.42912983875682L112.63152445492479,98.38480909895404"/><path d="M107.43930288180545,143.62461056296078L110.8328909229366,139.58028982315795L114.22647896406774,135.53596908335518L117.62006700519888,131.4916483435524L121.01365504633,127.44732760374961L124.40724308746115,123.40300686394683L127.8008311285923,119.35868612414404L129.1672625952866,114.25909446538009"/><path d="M129.1672625952866,114.25909446538009L130.5336940619809,109.15950280661616"/><path d="M130.5336940619809,109.15950280661616L133.92728210311202,105.11518206681338"/><path d="M127.8008311285923,119.35868612414404L131.19441916972343,115.31436538434127"/><path d="M131.19441916972343,115.31436538434127L134.58800721085458,111.27004464453849"/><path d="M134.58800721085458,111.27004464453849L139.3728462795035,109.03883754378825"/><path d="M127.8008311285923,119.35868612414404L131.19441916972343,115.31436538434127L134.58800721085458,111.27004464453849L135.95443867754884,106.17045298577453"/><path d="M135.95443867754884,106.17045298577453L137.32087014424317,101.07086132701059"/><path d="M137.32087014424317,101.07086132701059L140.71445818537433,97.0265405872078"/><path d="M134.58800721085458,111.27004464453849L139.3728462795035,109.03883754378825L144.1576853481524,106.80763044303801L148.94252441680132,104.57642334228777"/><path d="M148.94252441680132,104.57642334228777L153.7273634854502,102.34521624153753"/><path d="M153.7273634854502,102.34521624153753L159.00684925958646,102.34521624153753"/><path d="M100.24476875385275,308.40653345977677L101.61120022054703,303.30694180101284L102.97763168724133,298.20735014224886L104.34406315393561,293.10775848348493L105.7104946206299,288.00816682472094L107.07692608732421,282.90857516595696L108.44335755401849,277.808983507193L109.80978902071278,272.70939184842905L111.17622048740708,267.60980018966507L110.25944740370984,262.410521667378L109.34267432001258,257.211243145091L108.42590123631534,252.01196462280393L107.50912815261809,246.81268610051686L104.48093951652297,242.48798453583845L101.45275088042786,238.1632829711601L96.8805820811073,235.523540084092"/><path d="M96.8805820811073,235.523540084092L92.30841328178673,232.88379719702385"/><path d="M92.30841328178673,232.88379719702385L89.2802246456916,228.5590956323455"/><path d="M101.45275088042786,238.1632829711601L98.42456224433273,233.83858140648175"/><path d="M98.42456224433273,233.83858140648175L95.3963736082376,229.5138798418034"/><path d="M95.3963736082376,229.5138798418034L94.47960052454034,224.31460131951633"/><path d="M101.45275088042786,238.1632829711601L98.42456224433273,233.83858140648175L95.3963736082376,229.5138798418034L90.82420480891705,226.87413695473526"/><path d="M90.82420480891705,226.87413695473526L86.2520360095965,224.23439406766713"/><path d="M86.2520360095965,224.23439406766713L83.22384737350137,219.90969250298875"/><path d="M95.3963736082376,229.5138798418034L94.47960052454034,224.31460131951633L93.56282744084311,219.11532279722928L92.64605435714587,213.91604427494224"/><path d="M92.64605435714587,213.91604427494224L91.72928127344862,208.71676575265516"/><path d="M91.72928127344862,208.71676575265516L93.0957127401429,203.61717409389124"/><path d="M107.50912815261809,246.81268610051686L106.59235506892085,241.6134075782298L105.6755819852236,236.41412905594274L102.64739334912846,232.08942749126436"/><path d="M102.64739334912846,232.08942749126436L99.61920471303335,227.764725926586"/><path d="M99.61920471303335,227.764725926586L98.70243162933612,222.56544740429894"/><path d="M105.6755819852236,236.41412905594274L104.75880890152636,231.21485053365566"/><path d="M104.75880890152636,231.21485053365566L103.84203581782911,226.01557201136862"/><path d="M103.84203581782911,226.01557201136862L105.2084672845234,220.91598035260466"/><path d="M105.6755819852236,236.41412905594274L104.75880890152636,231.21485053365566L103.84203581782911,226.01557201136862L100.81384718173398,221.69087044669024"/><path d="M100.81384718173398,221.69087044669024L97.78565854563888,217.36616888201186"/><path d="M97.78565854563888,217.36616888201186L96.86888546194163,212.16689035972485"/><path d="M103.84203581782911,226.01557201136862L105.2084672845234,220.91598035260466L106.57489875121772,215.81638869384074L107.941330217912,210.7167970350768"/><path d="M107.941330217912,210.7167970350768L109.30776168460628,205.61720537631285"/><path d="M109.30776168460628,205.61720537631285L112.70134972573743,201.57288463651005"/><path d="M107.50912815261809,246.81268610051686L106.59235506892085,241.6134075782298L105.6755819852236,236.41412905594274L104.75880890152636,231.21485053365566L103.84203581782911,226.01557201136862L100.81384718173398,221.69087044669024L97.78565854563888,217.36616888201186L93.21348974631832,214.72642599494375"/><path d="M93.21348974631832,214.72642599494375L88.64132094699775,212.08668310787561"/><path d="M88.64132094699775,212.08668310787561L85.61313231090263,207.76198154319727"/><path d="M97.78565854563888,217.36616888201186L94.75746990954374,213.0414673173335"/><path d="M94.75746990954374,213.0414673173335L91.72928127344862,208.71676575265516"/><path d="M91.72928127344862,208.71676575265516L90.81250818975138,203.5174872303681"/><path d="M97.78565854563888,217.36616888201186L94.75746990954374,213.0414673173335L91.72928127344862,208.71676575265516L87.15711247412807,206.07702286558703"/><path d="M87.15711247412807,206.07702286558703L82.5849436748075,203.43727997851886"/><path d="M82.5849436748075,203.43727997851886L79.55675503871238,199.1125784138405"/><path d="M91.72928127344862,208.71676575265516L90.81250818975138,203.5174872303681L89.89573510605413,198.31820870808107L88.9789620223569,193.11893018579403"/><path d="M88.9789620223569,193.11893018579403L88.06218893865965,187.91965166350698"/><path d="M88.06218893865965,187.91965166350698L89.42862040535393,182.82006000474303"/><path d="M103.84203581782911,226.01557201136862L105.2084672845234,220.91598035260466L106.57489875121772,215.81638869384074L107.941330217912,210.7167970350768L109.30776168460628,205.61720537631285L110.67419315130059,200.5176137175489L112.04062461799488,195.41802205878497L111.12385153429763,190.21874353649793"/><path d="M111.12385153429763,190.21874353649793L110.20707845060038,185.01946501421088"/><path d="M110.20707845060038,185.01946501421088L111.57350991729467,179.91987335544695"/><path d="M112.04062461799488,195.41802205878497L113.40705608468915,190.31843040002101"/><path d="M113.40705608468915,190.31843040002101L114.77348755138344,185.2188387412571"/><path d="M114.77348755138344,185.2188387412571L118.16707559251458,181.17451800145432"/><path d="M112.04062461799488,195.41802205878497L113.40705608468915,190.31843040002101L114.77348755138344,185.2188387412571L113.85671446768619,180.01956021897007"/><path d="M113.85671446768619,180.01956021897007L112.93994138398895,174.82028169668303"/><path d="M112.93994138398895,174.82028169668303L114.30637285068323,169.72069003791904"/><path d="M114.77348755138344,185.2188387412571L118.16707559251458,181.17451800145432L121.56066363364573,177.1301972616515L124.95425167477687,173.08587652184872"/><path d="M124.95425167477687,173.08587652184872L128.347839715908,169.04155578204595"/><path d="M128.347839715908,169.04155578204595L133.1326787845569,166.8103486812957"/><path d="M111.17622048740708,267.60980018966507L112.54265195410134,262.51020853090114L113.90908342079567,257.41061687213715L115.27551488748995,252.3110252133732L116.64194635418423,247.21143355460927L115.72517327048699,242.0121550323222L114.80840018678975,236.81287651003512L111.78021155069464,232.48817494535677"/><path d="M111.78021155069464,232.48817494535677L108.75202291459951,228.1634733806784"/><path d="M108.75202291459951,228.1634733806784L107.83524983090227,222.96419485839135"/><path d="M114.80840018678975,236.81287651003512L113.89162710309249,231.61359798774805"/><path d="M113.89162710309249,231.61359798774805L112.97485401939525,226.414319465461"/><path d="M112.97485401939525,226.414319465461L114.34128548608956,221.31472780669708"/><path d="M114.80840018678975,236.81287651003512L113.89162710309249,231.61359798774805L112.97485401939525,226.414319465461L109.94666538330014,222.08961790078263"/><path d="M109.94666538330014,222.08961790078263L106.91847674720502,217.76491633610428"/><path d="M106.91847674720502,217.76491633610428L106.00170366350778,212.5656378138172"/><path d="M112.97485401939525,226.414319465461L114.34128548608956,221.31472780669708L115.70771695278384,216.2151361479331L117.07414841947813,211.11554448916914"/><path d="M117.07414841947813,211.11554448916914L118.44057988617243,206.01595283040518"/><path d="M118.44057988617243,206.01595283040518L121.83416792730355,201.97163209060244"/><path d="M116.64194635418423,247.21143355460927L118.00837782087852,242.11184189584532L119.37480928757283,237.01225023708136L118.45803620387557,231.81297171479423"/><path d="M118.45803620387557,231.81297171479423L117.54126312017833,226.6136931925072"/><path d="M117.54126312017833,226.6136931925072L118.90769458687262,221.5141015337433"/><path d="M119.37480928757283,237.01225023708136L120.74124075426712,231.91265857831738"/><path d="M120.74124075426712,231.91265857831738L122.10767222096139,226.81306691955342"/><path d="M122.10767222096139,226.81306691955342L125.50126026209253,222.76874617975062"/><path d="M119.37480928757283,237.01225023708136L120.74124075426712,231.91265857831738L122.10767222096139,226.81306691955342L121.19089913726414,221.61378839726638"/><path d="M121.19089913726414,221.61378839726638L120.2741260535669,216.41450987497927"/><path d="M120.2741260535669,216.41450987497927L121.6405575202612,211.31491821621535"/><path d="M122.10767222096139,226.81306691955342L125.50126026209253,222.76874617975062L128.89484830322368,218.72442543994782L132.28843634435484,214.68010470014505"/><path d="M132.28843634435484,214.68010470014505L135.68202438548593,210.63578396034225"/><path d="M135.68202438548593,210.63578396034225L140.46686345413485,208.40457685959205"/><path d="M116.64194635418423,247.21143355460927L118.00837782087852,242.11184189584532L119.37480928757283,237.01225023708136L120.74124075426712,231.91265857831738L122.10767222096139,226.81306691955342L121.19089913726414,221.61378839726638L120.2741260535669,216.41450987497927L117.24593741747178,212.08980831030095"/><path d="M117.24593741747178,212.08980831030095L114.21774878137666,207.76510674562255"/><path d="M114.21774878137666,207.76510674562255L113.30097569767942,202.5658282233355"/><path d="M120.2741260535669,216.41450987497927L119.35735296986968,211.21523135269226"/><path d="M119.35735296986968,211.21523135269226L118.44057988617243,206.01595283040518"/><path d="M118.44057988617243,206.01595283040518L119.80701135286671,200.91636117164126"/><path d="M120.2741260535669,216.41450987497927L119.35735296986968,211.21523135269226L118.44057988617243,206.01595283040518L115.41239125007728,201.69125126572683"/><path d="M115.41239125007728,201.69125126572683L112.38420261398215,197.36654970104846"/><path d="M112.38420261398215,197.36654970104846L111.46742953028493,192.1672711787614"/><path d="M118.44057988617243,206.01595283040518L119.80701135286671,200.91636117164126L121.17344281956099,195.81676951287733L122.53987428625527,190.71717785411337"/><path d="M122.53987428625527,190.71717785411337L123.90630575294956,185.61758619534942"/><path d="M123.90630575294956,185.61758619534942L127.29989379408073,181.57326545554665"/><path d="M122.10767222096139,226.81306691955342L125.50126026209253,222.76874617975062L128.89484830322368,218.72442543994782L132.28843634435484,214.68010470014505L135.68202438548593,210.63578396034225L139.0756124266171,206.59146322053948L142.46920046774824,202.54714248073665L143.83563193444252,197.44755082197273"/><path d="M143.83563193444252,197.44755082197273L145.2020634011368,192.3479591632088"/><path d="M145.2020634011368,192.3479591632088L148.59565144226798,188.30363842340603"/><path d="M142.46920046774824,202.54714248073665L145.86278850887936,198.5028217409339"/><path d="M145.86278850887936,198.5028217409339L149.25637655001054,194.4585010011311"/><path d="M149.25637655001054,194.4585010011311L154.04121561865944,192.2272939003809"/><path d="M142.46920046774824,202.54714248073665L145.86278850887936,198.5028217409339L149.25637655001054,194.4585010011311L150.6228080167048,189.35890934236716"/><path d="M150.6228080167048,189.35890934236716L151.9892394833991,184.25931768360323"/><path d="M151.9892394833991,184.25931768360323L155.38282752453028,180.21499694380043"/><path d="M149.25637655001054,194.4585010011311L154.04121561865944,192.2272939003809L158.82605468730833,189.99608679963066L163.61089375595728,187.7648796988804"/><path d="M163.61089375595728,187.7648796988804L168.39573282460617,185.53367259813018"/><path d="M168.39573282460617,185.53367259813018L173.67521859874242,185.53367259813018"/><path d="M111.17622048740708,267.60980018966507L112.54265195410134,262.51020853090114L113.90908342079567,257.41061687213715L115.27551488748995,252.3110252133732L116.64194635418423,247.21143355460927L118.00837782087852,242.11184189584532L119.37480928757283,237.01225023708136L120.74124075426712,231.91265857831738L122.10767222096139,226.81306691955342L121.19089913726414,221.61378839726638L120.2741260535669,216.41450987497927L119.35735296986968,211.21523135269226L118.44057988617243,206.01595283040518L115.41239125007728,201.69125126572683L112.38420261398215,197.36654970104846L107.81203381466162,194.72680681398032"/><path d="M107.81203381466162,194.72680681398032L103.23986501534105,192.0870639269122"/><path d="M103.23986501534105,192.0870639269122L100.21167637924593,187.76236236223383"/><path d="M112.38420261398215,197.36654970104846L109.35601397788706,193.0418481363701"/><path d="M109.35601397788706,193.0418481363701L106.32782534179194,188.71714657169173"/><path d="M106.32782534179194,188.71714657169173L105.41105225809468,183.51786804940468"/><path d="M112.38420261398215,197.36654970104846L109.35601397788706,193.0418481363701L106.32782534179194,188.71714657169173L101.75565654247137,186.0774036846236"/><path d="M101.75565654247137,186.0774036846236L97.18348774315079,183.43766079755545"/><path d="M97.18348774315079,183.43766079755545L94.1552991070557,179.1129592328771"/><path d="M106.32782534179194,188.71714657169173L105.41105225809468,183.51786804940468L104.49427917439743,178.31858952711767L103.57750609070018,173.11931100483062"/><path d="M103.57750609070018,173.11931100483062L102.66073300700295,167.92003248254358"/><path d="M102.66073300700295,167.92003248254358L104.02716447369724,162.82044082377962"/><path d="M118.44057988617243,206.01595283040518L117.52380680247518,200.81667430811817L116.60703371877794,195.61739578583112L113.57884508268282,191.29269422115277"/><path d="M113.57884508268282,191.29269422115277L110.55065644658767,186.9679926564744"/><path d="M110.55065644658767,186.9679926564744L109.63388336289043,181.76871413418735"/><path d="M116.60703371877794,195.61739578583112L115.69026063508069,190.41811726354408"/><path d="M115.69026063508069,190.41811726354408L114.77348755138344,185.21883874125703"/><path d="M114.77348755138344,185.21883874125703L116.13991901807773,180.1192470824931"/><path d="M116.60703371877794,195.61739578583112L115.69026063508069,190.41811726354408L114.77348755138344,185.21883874125703L111.74529891528832,180.89413717657868"/><path d="M111.74529891528832,180.89413717657868L108.7171102791932,176.5694356119003"/><path d="M108.7171102791932,176.5694356119003L107.80033719549597,171.37015708961326"/><path d="M114.77348755138344,185.21883874125703L116.13991901807773,180.1192470824931L117.50635048477201,175.01965542372915L118.87278195146632,169.9200637649652"/><path d="M118.87278195146632,169.9200637649652L120.2392134181606,164.82047210620127"/><path d="M120.2392134181606,164.82047210620127L123.63280145929174,160.7761513663985"/><path d="M118.44057988617243,206.01595283040518L117.52380680247518,200.81667430811817L116.60703371877794,195.61739578583112L115.69026063508069,190.41811726354408L114.77348755138344,185.21883874125703L111.74529891528832,180.89413717657868L108.7171102791932,176.5694356119003L104.14494147987263,173.92969272483217"/><path d="M104.14494147987263,173.92969272483217L99.57277268055208,171.28994983776406"/><path d="M99.57277268055208,171.28994983776406L96.54458404445695,166.96524827308568"/><path d="M108.7171102791932,176.5694356119003L105.68892164309807,172.24473404722195"/><path d="M105.68892164309807,172.24473404722195L102.66073300700295,167.92003248254358"/><path d="M102.66073300700295,167.92003248254358L101.74395992330571,162.72075396025656"/><path d="M108.7171102791932,176.5694356119003L105.68892164309807,172.24473404722195L102.66073300700295,167.92003248254358L98.0885642076824,165.2802895954754"/><path d="M98.0885642076824,165.2802895954754L93.51639540836183,162.64054670840733"/><path d="M93.51639540836183,162.64054670840733L90.48820677226672,158.31584514372895"/><path d="M102.66073300700295,167.92003248254358L101.74395992330571,162.72075396025656L100.82718683960847,157.5214754379695L99.91041375591121,152.32219691568247"/><path d="M99.91041375591121,152.32219691568247L98.99364067221397,147.12291839339542"/><path d="M98.99364067221397,147.12291839339542L100.36007213890827,142.0233267346315"/><path d="M114.77348755138344,185.21883874125703L116.13991901807773,180.1192470824931L117.50635048477201,175.01965542372915L118.87278195146632,169.9200637649652L120.2392134181606,164.82047210620127L121.6056448848549,159.72088044743734L122.97207635154918,154.62128878867338L122.05530326785194,149.42201026638637"/><path d="M122.05530326785194,149.42201026638637L121.1385301841547,144.22273174409932"/><path d="M121.1385301841547,144.22273174409932L122.50496165084897,139.12314008533536"/><path d="M122.97207635154918,154.62128878867338L124.33850781824347,149.52169712990943"/><path d="M124.33850781824347,149.52169712990943L125.70493928493775,144.42210547114553"/><path d="M125.70493928493775,144.42210547114553L129.0985273260689,140.37778473134273"/><path d="M122.97207635154918,154.62128878867338L124.33850781824347,149.52169712990943L125.70493928493775,144.42210547114553L124.78816620124051,139.22282694885848"/><path d="M124.78816620124051,139.22282694885848L123.87139311754325,134.02354842657144"/><path d="M123.87139311754325,134.02354842657144L125.23782458423756,128.92395676780748"/><path d="M125.70493928493775,144.42210547114553L129.0985273260689,140.37778473134273L132.49211536720003,136.33346399153996L135.88570340833115,132.28914325173716"/><path d="M135.88570340833115,132.28914325173716L139.27929144946233,128.2448225119344"/><path d="M139.27929144946233,128.2448225119344L144.0641305181112,126.01361541118412"/><path d="M122.10767222096139,226.81306691955342L125.50126026209253,222.76874617975062L128.89484830322368,218.72442543994782L132.28843634435484,214.68010470014505L135.68202438548593,210.63578396034225L139.0756124266171,206.59146322053948L142.46920046774824,202.54714248073665L145.86278850887936,198.5028217409339L149.25637655001054,194.4585010011311L152.64996459114167,190.41418026132834L156.0435526322728,186.36985952152554L159.43714067340395,182.32553878172277L162.8307287145351,178.28121804192L164.19716018122938,173.18162638315601L165.56359164792366,168.0820347243921L164.64681856422644,162.88275620210504"/><path d="M164.64681856422644,162.88275620210504L163.73004548052918,157.683477679818"/><path d="M163.73004548052918,157.683477679818L165.09647694722347,152.58388602105404"/><path d="M165.56359164792366,168.0820347243921L166.93002311461794,162.98244306562816"/><path d="M166.93002311461794,162.98244306562816L168.29645458131222,157.8828514068642"/><path d="M168.29645458131222,157.8828514068642L171.6900426224434,153.8385306670614"/><path d="M165.56359164792366,168.0820347243921L166.93002311461794,162.98244306562816L168.29645458131222,157.8828514068642L167.379681497615,152.68357288457716"/><path d="M167.379681497615,152.68357288457716L166.46290841391775,147.48429436229011"/><path d="M166.46290841391775,147.48429436229011L167.82933988061203,142.38470270352616"/><path d="M168.29645458131222,157.8828514068642L171.6900426224434,153.8385306670614L175.08363066357452,149.79420992725863L178.47721870470568,145.74988918745584"/><path d="M178.47721870470568,145.74988918745584L181.8708067458368,141.70556844765304"/><path d="M181.8708067458368,141.70556844765304L186.65564581448575,139.4743613469028"/><path d="M162.8307287145351,178.28121804192L166.22431675566622,174.23689730211717L169.61790479679738,170.1925765623144L170.98433626349163,165.09298490355044"/><path d="M170.98433626349163,165.09298490355044L172.35076773018596,159.99339324478652"/><path d="M172.35076773018596,159.99339324478652L175.74435577131706,155.94907250498372"/><path d="M169.61790479679738,170.1925765623144L173.0114928379285,166.1482558225116"/><path d="M173.0114928379285,166.1482558225116L176.40508087905965,162.1039350827088"/><path d="M176.40508087905965,162.1039350827088L181.18991994770855,159.87272798195858"/><path d="M169.61790479679738,170.1925765623144L173.0114928379285,166.1482558225116L176.40508087905965,162.1039350827088L177.77151234575393,157.00434342394487"/><path d="M177.77151234575393,157.00434342394487L179.1379438124482,151.90475176518095"/><path d="M179.1379438124482,151.90475176518095L182.53153185357937,147.86043102537815"/><path d="M176.40508087905965,162.1039350827088L181.18991994770855,159.87272798195858L185.97475901635747,157.64152088120835L190.75959808500636,155.41031378045813"/><path d="M190.75959808500636,155.41031378045813L195.5444371536553,153.1791066797079"/><path d="M195.5444371536553,153.1791066797079L200.82392292779156,153.1791066797079"/><path d="M162.8307287145351,178.28121804192L166.22431675566622,174.23689730211717L169.61790479679738,170.1925765623144L173.0114928379285,166.1482558225116L176.40508087905965,162.1039350827088L177.77151234575393,157.00434342394487L179.1379438124482,151.90475176518095L178.22117072875096,146.7054732428939"/><path d="M178.22117072875096,146.7054732428939L177.30439764505374,141.50619472060689"/><path d="M177.30439764505374,141.50619472060689L178.670829111748,136.40660306184293"/><path d="M179.1379438124482,151.90475176518095L180.50437527914252,146.80516010641702"/><path d="M180.50437527914252,146.80516010641702L181.8708067458368,141.70556844765304"/><path d="M181.8708067458368,141.70556844765304L185.26439478696793,137.66124770785026"/><path d="M179.1379438124482,151.90475176518095L180.50437527914252,146.80516010641702L181.8708067458368,141.70556844765304L180.95403366213955,136.506289925366"/><path d="M180.95403366213955,136.506289925366L180.03726057844233,131.30701140307897"/><path d="M180.03726057844233,131.30701140307897L181.4036920451366,126.20741974431503"/><path d="M181.8708067458368,141.70556844765304L185.26439478696793,137.66124770785026L188.65798282809908,133.6169269680475L192.0515708692302,129.5726062282447"/><path d="M192.0515708692302,129.5726062282447L195.44515891036136,125.5282854884419"/><path d="M195.44515891036136,125.5282854884419L200.22999797901028,123.29707838769168"/><path d="M176.40508087905965,162.1039350827088L181.18991994770855,159.87272798195858L185.97475901635747,157.64152088120835L190.75959808500636,155.41031378045813L195.5444371536553,153.1791066797079L200.32927622230417,150.94789957895765L205.11411529095312,148.7166924782074L208.50770333208422,144.67237173840462"/><path d="M208.50770333208422,144.67237173840462L211.90129137321537,140.62805099860185"/><path d="M211.90129137321537,140.62805099860185L216.68613044186426,138.39684389785162"/><path d="M205.11411529095312,148.7166924782074L209.898954359602,146.4854853774572"/><path d="M209.898954359602,146.4854853774572L214.6837934282509,144.25427827670694"/><path d="M214.6837934282509,144.25427827670694L219.9632792023872,144.25427827670694"/><path d="M205.11411529095312,148.7166924782074L209.898954359602,146.4854853774572L214.6837934282509,144.25427827670694L218.07738146938206,140.20995753690417"/><path d="M218.07738146938206,140.20995753690417L221.4709695105132,136.1656367971014"/><path d="M221.4709695105132,136.1656367971014L226.2558085791621,133.93442969635115"/><path d="M214.6837934282509,144.25427827670694L219.9632792023872,144.25427827670694L225.24276497652346,144.25427827670694L230.52225075065974,144.25427827670694"/><path d="M230.52225075065974,144.25427827670694L235.80173652479598,144.25427827670694"/><path d="M235.80173652479598,144.25427827670694L240.58657559344488,146.4854853774572"/><path d="M100.24476875385275,308.40653345977677L101.61120022054703,303.30694180101284L102.97763168724133,298.20735014224886L104.34406315393561,293.10775848348493L105.7104946206299,288.00816682472094L107.07692608732421,282.90857516595696L108.44335755401849,277.808983507193L109.80978902071278,272.70939184842905L111.17622048740708,267.60980018966507L112.54265195410134,262.51020853090114L113.90908342079567,257.41061687213715L115.27551488748995,252.3110252133732L116.64194635418423,247.21143355460927L118.00837782087852,242.11184189584532L119.37480928757283,237.01225023708136L120.74124075426712,231.91265857831738L122.10767222096139,226.81306691955342L121.19089913726414,221.61378839726638L120.2741260535669,216.41450987497927L119.35735296986968,211.21523135269226L118.44057988617243,206.01595283040518L117.52380680247518,200.81667430811817L116.60703371877794,195.61739578583112L115.69026063508069,190.41811726354408L114.77348755138344,185.21883874125703L111.74529891528832,180.89413717657868L108.7171102791932,176.5694356119003L105.68892164309807,172.24473404722195L102.66073300700295,167.92003248254358L98.0885642076824,165.2802895954754L93.51639540836183,162.64054670840733L88.25699967151648,162.18040920443678"/><path d="M88.25699967151648,162.18040920443678L82.99760393467116,161.72027170046627"/><path d="M82.99760393467116,161.72027170046627L78.4254351353506,159.08052881339813"/><path d="M93.51639540836183,162.64054670840733L88.94422660904127,160.0008038213392"/><path d="M88.94422660904127,160.0008038213392L84.37205780972072,157.36106093427105"/><path d="M84.37205780972072,157.36106093427105L81.34386917362558,153.03635936959267"/><path d="M93.51639540836183,162.64054670840733L88.94422660904127,160.0008038213392L84.37205780972072,157.36106093427105L79.11266207287537,156.9009234303005"/><path d="M79.11266207287537,156.9009234303005L73.85326633603005,156.44078592633"/><path d="M73.85326633603005,156.44078592633L69.28109753670948,153.80104303926186"/><path d="M84.37205780972072,157.36106093427105L81.34386917362558,153.03635936959267L78.31568053753047,148.7116578049143L75.28749190143535,144.38695624023592"/><path d="M75.28749190143535,144.38695624023592L72.25930326534022,140.06225467555757"/><path d="M72.25930326534022,140.06225467555757L71.34253018164299,134.86297615327052"/><path d="M102.66073300700295,167.92003248254358L99.63254437090782,163.5953309178652L96.60435573481271,159.27062935318682L92.03218693549213,156.6308864661187"/><path d="M92.03218693549213,156.6308864661187L87.46001813617158,153.99114357905057"/><path d="M87.46001813617158,153.99114357905057L84.43182950007646,149.6664420143722"/><path d="M96.60435573481271,159.27062935318682L93.57616709871759,154.94592778850847"/><path d="M93.57616709871759,154.94592778850847L90.54797846262247,150.6212262238301"/><path d="M90.54797846262247,150.6212262238301L89.63120537892522,145.42194770154305"/><path d="M96.60435573481271,159.27062935318682L93.57616709871759,154.94592778850847L90.54797846262247,150.6212262238301L85.9758096633019,147.98148333676195"/><path d="M85.9758096633019,147.98148333676195L81.40364086398134,145.34174044969382"/><path d="M81.40364086398134,145.34174044969382L78.37545222788621,141.01703888501547"/><path d="M90.54797846262247,150.6212262238301L89.63120537892522,145.42194770154305L88.71443229522797,140.22266917925603L87.79765921153071,135.02339065696896"/><path d="M87.79765921153071,135.02339065696896L86.88088612783348,129.82411213468194"/><path d="M86.88088612783348,129.82411213468194L88.24731759452777,124.724520475918"/><path d="M102.66073300700295,167.92003248254358L99.63254437090782,163.5953309178652L96.60435573481271,159.27062935318682L93.57616709871759,154.94592778850847L90.54797846262247,150.6212262238301L85.9758096633019,147.98148333676195L81.40364086398134,145.34174044969382L76.144245127136,144.8816029457233"/><path d="M76.144245127136,144.8816029457233L70.88484939029065,144.4214654417528"/><path d="M70.88484939029065,144.4214654417528L66.3126805909701,141.78172255468468"/><path d="M81.40364086398134,145.34174044969382L76.83147206466077,142.7019975626257"/><path d="M76.83147206466077,142.7019975626257L72.25930326534022,140.06225467555757"/><path d="M72.25930326534022,140.06225467555757L69.2311146292451,135.7375531108792"/><path d="M81.40364086398134,145.34174044969382L76.83147206466077,142.7019975626257L72.25930326534022,140.06225467555757L66.99990752849487,139.60211717158703"/><path d="M66.99990752849487,139.60211717158703L61.740511791649546,139.1419796676165"/><path d="M61.740511791649546,139.1419796676165L57.168342992328974,136.50223678054837"/><path d="M72.25930326534022,140.06225467555757L69.2311146292451,135.7375531108792L66.20292599314998,131.41285154620084L63.17473735705485,127.08814998152246"/><path d="M63.17473735705485,127.08814998152246L60.14654872095973,122.76344841684408"/><path d="M60.14654872095973,122.76344841684408L59.22977563726249,117.56416989455705"/><path d="M90.54797846262247,150.6212262238301L89.63120537892522,145.42194770154305L88.71443229522797,140.22266917925603L87.79765921153071,135.02339065696896L86.88088612783348,129.82411213468194L85.96411304413623,124.6248336123949L85.04733996043896,119.42555509010786L82.01915132434385,115.10085352542949"/><path d="M82.01915132434385,115.10085352542949L78.99096268824873,110.77615196075112"/><path d="M78.99096268824873,110.77615196075112L78.07418960455149,105.57687343846408"/><path d="M85.04733996043896,119.42555509010786L84.13056687674172,114.22627656782083"/><path d="M84.13056687674172,114.22627656782083L83.21379379304449,109.02699804553379"/><path d="M83.21379379304449,109.02699804553379L84.58022525973877,103.92740638676983"/><path d="M85.04733996043896,119.42555509010786L84.13056687674172,114.22627656782083L83.21379379304449,109.02699804553379L80.18560515694936,104.70229648085541"/><path d="M80.18560515694936,104.70229648085541L77.15741652085424,100.37759491617703"/><path d="M77.15741652085424,100.37759491617703L76.240643437157,95.17831639389"/><path d="M83.21379379304449,109.02699804553379L84.58022525973877,103.92740638676983L85.94665672643308,98.82781472800589L87.31308819312736,93.72822306924193"/><path d="M87.31308819312736,93.72822306924193L88.67951965982164,88.62863141047801"/><path d="M88.67951965982164,88.62863141047801L92.07310770095279,84.58431067067522"/><path d="M114.77348755138344,185.21883874125703L113.85671446768619,180.01956021897L112.93994138398895,174.82028169668297L112.0231683002917,169.62100317439592L111.10639521659445,164.4217246521089L108.07820658049934,160.09702308743053L105.0500179444042,155.77232152275215L100.47784914508365,153.132578635684"/><path d="M100.47784914508365,153.132578635684L95.9056803457631,150.4928357486159"/><path d="M95.9056803457631,150.4928357486159L92.87749170966796,146.1681341839375"/><path d="M105.0500179444042,155.77232152275215L102.0218293083091,151.44761995807377"/><path d="M102.0218293083091,151.44761995807377L98.99364067221397,147.12291839339542"/><path d="M98.99364067221397,147.12291839339542L98.07686758851672,141.92363987110838"/><path d="M105.0500179444042,155.77232152275215L102.0218293083091,151.44761995807377L98.99364067221397,147.12291839339542L94.42147187289342,144.48317550632729"/><path d="M94.42147187289342,144.48317550632729L89.84930307357286,141.84343261925915"/><path d="M89.84930307357286,141.84343261925915L86.82111443747773,137.51873105458077"/><path d="M98.99364067221397,147.12291839339542L98.07686758851672,141.92363987110838L97.1600945048195,136.72436134882133L96.24332142112225,131.5250828265343"/><path d="M96.24332142112225,131.5250828265343L95.32654833742497,126.32580430424724"/><path d="M95.32654833742497,126.32580430424724L96.69297980411929,121.22621264548332"/><path d="M111.10639521659445,164.4217246521089L110.18962213289723,159.22244612982183L109.27284904919998,154.0231676075348L106.24466041310485,149.69846604285647"/><path d="M106.24466041310485,149.69846604285647L103.21647177700973,145.37376447817806"/><path d="M103.21647177700973,145.37376447817806L102.29969869331251,140.17448595589104"/><path d="M109.27284904919998,154.0231676075348L108.35607596550274,148.82388908524777"/><path d="M108.35607596550274,148.82388908524777L107.43930288180549,143.62461056296073"/><path d="M107.43930288180549,143.62461056296073L108.80573434849978,138.5250189041968"/><path d="M109.27284904919998,154.0231676075348L108.35607596550274,148.82388908524777L107.43930288180549,143.62461056296073L104.41111424571037,139.29990899828235"/><path d="M104.41111424571037,139.29990899828235L101.38292560961523,134.97520743360397"/><path d="M101.38292560961523,134.97520743360397L100.466152525918,129.77592891131695"/><path d="M107.43930288180549,143.62461056296073L108.80573434849978,138.5250189041968L110.17216581519405,133.42542724543281L111.53859728188839,128.3258355866689"/><path d="M111.53859728188839,128.3258355866689L112.90502874858265,123.22624392790496"/><path d="M112.90502874858265,123.22624392790496L116.29861678971379,119.18192318810218"/><path d="M111.10639521659445,164.4217246521089L110.18962213289723,159.22244612982183L109.27284904919998,154.0231676075348L108.35607596550274,148.82388908524777L107.43930288180549,143.62461056296073L104.41111424571037,139.29990899828235L101.38292560961523,134.97520743360397L96.81075681029469,132.33546454653586"/><path d="M96.81075681029469,132.33546454653586L92.23858801097414,129.69572165946772"/><path d="M92.23858801097414,129.69572165946772L89.21039937487899,125.37102009478934"/><path d="M101.38292560961523,134.97520743360397L98.35473697352012,130.65050586892562"/><path d="M98.35473697352012,130.65050586892562L95.326548337425,126.32580430424724"/><path d="M95.326548337425,126.32580430424724L94.40977525372774,121.12652578196021"/><path d="M101.38292560961523,134.97520743360397L98.35473697352012,130.65050586892562L95.326548337425,126.32580430424724L90.75437953810444,123.68606141717912"/><path d="M90.75437953810444,123.68606141717912L86.18221073878388,121.046318530111"/><path d="M86.18221073878388,121.046318530111L83.15402210268876,116.72161696543262"/><path d="M95.326548337425,126.32580430424724L94.40977525372774,121.12652578196021L93.49300217003051,115.92724725967318L92.57622908633326,110.72796873738612"/><path d="M92.57622908633326,110.72796873738612L91.659456002636,105.52869021509909"/><path d="M91.659456002636,105.52869021509909L93.0258874693303,100.42909855633515"/><path d="M107.43930288180549,143.62461056296073L108.80573434849978,138.5250189041968L110.17216581519405,133.42542724543281L111.53859728188839,128.3258355866689L112.90502874858265,123.22624392790496L114.27146021527695,118.12665226914102L115.63789168197124,113.02706061037706L114.72111859827399,107.82778208809003"/><path d="M114.72111859827399,107.82778208809003L113.80434551457677,102.62850356580299"/><path d="M113.80434551457677,102.62850356580299L115.17077698127103,97.52891190703905"/><path d="M115.63789168197124,113.02706061037706L117.00432314866553,107.92746895161314"/><path d="M117.00432314866553,107.92746895161314L118.37075461535983,102.82787729284918"/><path d="M118.37075461535983,102.82787729284918L121.76434265649095,98.7835565530464"/><path d="M115.63789168197124,113.02706061037706L117.00432314866553,107.92746895161314L118.37075461535983,102.82787729284918L117.45398153166258,97.62859877056215"/><path d="M117.45398153166258,97.62859877056215L116.53720844796533,92.4293202482751"/><path d="M116.53720844796533,92.4293202482751L117.9036399146596,87.32972858951116"/><path d="M118.37075461535983,102.82787729284918L121.76434265649095,98.7835565530464L125.15793069762209,94.73923581324361L128.55151873875323,90.69491507344082"/><path d="M128.55151873875323,90.69491507344082L131.94510677988438,86.65059433363805"/><path d="M131.94510677988438,86.65059433363805L136.7299458485333,84.4193872328878"/><path d="M114.77348755138344,185.21883874125703L113.85671446768619,180.01956021897L112.93994138398895,174.82028169668297L112.0231683002917,169.62100317439592L111.10639521659445,164.4217246521089L110.18962213289723,159.22244612982183L109.27284904919998,154.0231676075348L108.35607596550274,148.82388908524777L107.43930288180549,143.62461056296073L104.41111424571037,139.29990899828235L101.38292560961523,134.97520743360397L98.35473697352012,130.65050586892562L95.326548337425,126.32580430424724L90.75437953810444,123.68606141717912L86.18221073878388,121.046318530111L80.92281500193853,120.58618102614045"/><path d="M80.92281500193853,120.58618102614045L75.6634192650932,120.12604352216994"/><path d="M75.6634192650932,120.12604352216994L71.09125046577263,117.48630063510181"/><path d="M86.18221073878388,121.046318530111L81.61004193946331,118.40657564304286"/><path d="M81.61004193946331,118.40657564304286L77.03787314014278,115.7668327559747"/><path d="M77.03787314014278,115.7668327559747L74.00968450404764,111.44213119129635"/><path d="M86.18221073878388,121.046318530111L81.61004193946331,118.40657564304286L77.03787314014278,115.7668327559747L71.77847740329742,115.30669525200419"/><path d="M71.77847740329742,115.30669525200419L66.51908166645208,114.84655774803366"/><path d="M66.51908166645208,114.84655774803366L61.94691286713152,112.20681486096555"/><path d="M77.03787314014278,115.7668327559747L74.00968450404764,111.44213119129635L70.98149586795252,107.11742962661799L67.95330723185738,102.79272806193961"/><path d="M67.95330723185738,102.79272806193961L64.92511859576227,98.46802649726125"/><path d="M64.92511859576227,98.46802649726125L64.00834551206503,93.2687479749742"/><path d="M95.326548337425,126.32580430424724L92.29835970132987,122.00110273956888L89.27017106523475,117.6764011748905L84.69800226591418,115.03665828782239"/><path d="M84.69800226591418,115.03665828782239L80.12583346659363,112.39691540075424"/><path d="M80.12583346659363,112.39691540075424L77.09764483049851,108.07221383607587"/><path d="M89.27017106523475,117.6764011748905L86.24198242913963,113.35169961021214"/><path d="M86.24198242913963,113.35169961021214L83.2137937930445,109.02699804553379"/><path d="M83.2137937930445,109.02699804553379L82.29702070934727,103.82771952324674"/><path d="M89.27017106523475,117.6764011748905L86.24198242913963,113.35169961021214L83.2137937930445,109.02699804553379L78.64162499372394,106.38725515846565"/><path d="M78.64162499372394,106.38725515846565L74.06945619440339,103.74751227139751"/><path d="M74.06945619440339,103.74751227139751L71.04126755830826,99.42281070671915"/><path d="M83.2137937930445,109.02699804553379L82.29702070934727,103.82771952324674L81.38024762565003,98.6284410009597L80.46347454195275,93.42916247867265"/><path d="M80.46347454195275,93.42916247867265L79.54670145825551,88.22988395638562"/><path d="M79.54670145825551,88.22988395638562L80.9131329249498,83.13029229762168"/><path d="M95.326548337425,126.32580430424724L92.29835970132987,122.00110273956888L89.27017106523475,117.6764011748905L86.24198242913963,113.35169961021214L83.2137937930445,109.02699804553379L78.64162499372394,106.38725515846565L74.06945619440339,103.74751227139751L68.81006045755804,103.28737476742698"/><path d="M68.81006045755804,103.28737476742698L63.5506647207127,102.82723726345645"/><path d="M63.5506647207127,102.82723726345645L58.97849592139214,100.18749437638833"/><path d="M74.06945619440339,103.74751227139751L69.49728739508282,101.10776938432937"/><path d="M69.49728739508282,101.10776938432937L64.92511859576227,98.46802649726125"/><path d="M64.92511859576227,98.46802649726125L61.89692995966714,94.14332493258289"/><path d="M74.06945619440339,103.74751227139751L69.49728739508282,101.10776938432937L64.92511859576227,98.46802649726125L59.66572285891693,98.00788899329072"/><path d="M59.66572285891693,98.00788899329072L54.40632712207159,97.5477514893202"/><path d="M54.40632712207159,97.5477514893202L49.83415832275104,94.90800860225207"/><path d="M64.92511859576227,98.46802649726125L61.89692995966714,94.14332493258289L58.868741323572024,89.81862336790451L55.8405526874769,85.49392180322613"/><path d="M55.8405526874769,85.49392180322613L52.81236405138178,81.16922023854777"/><path d="M52.81236405138178,81.16922023854777L51.89559096768453,75.96994171626073"/><path d="M83.2137937930445,109.02699804553379L82.29702070934727,103.82771952324674L81.38024762565003,98.6284410009597L80.46347454195275,93.42916247867265L79.54670145825551,88.22988395638562L78.62992837455828,83.03060543409858L77.71315529086104,77.83132691181154L74.6849666547659,73.50662534713317"/><path d="M74.6849666547659,73.50662534713317L71.65677801867079,69.18192378245479"/><path d="M71.65677801867079,69.18192378245479L70.74000493497354,63.98264526016776"/><path d="M77.71315529086104,77.83132691181154L76.79638220716379,72.6320483895245"/><path d="M76.79638220716379,72.6320483895245L75.87960912346652,67.43276986723745"/><path d="M75.87960912346652,67.43276986723745L77.24604059016082,62.333178208473505"/><path d="M77.71315529086104,77.83132691181154L76.79638220716379,72.6320483895245L75.87960912346652,67.43276986723745L72.85142048737141,63.108068302559076"/><path d="M72.85142048737141,63.108068302559076L69.82323185127629,58.78336673788072"/><path d="M69.82323185127629,58.78336673788072L68.90645876757904,53.584088215593674"/><path d="M75.87960912346652,67.43276986723745L77.24604059016082,62.333178208473505L78.61247205685511,57.23358654970957L79.9789035235494,52.13399489094563"/><path d="M79.9789035235494,52.13399489094563L81.34533499024369,47.034403232181646"/><path d="M81.34533499024369,47.034403232181646L84.73892303137484,42.990082492378896"/><path d="M107.43930288180549,143.62461056296073L108.80573434849978,138.5250189041968L110.17216581519405,133.42542724543281L111.53859728188839,128.3258355866689L112.90502874858265,123.22624392790496L114.27146021527695,118.12665226914102L115.63789168197124,113.02706061037706L117.00432314866553,107.92746895161314L118.37075461535983,102.82787729284918L119.7371860820541,97.72828563408525L121.1036175487484,92.6286939753213L122.47004901544267,87.52910231655737L123.83648048213696,82.42951065779341L122.91970739843974,77.23023213550638L122.00293431474248,72.03095361321934L118.97474567864737,67.70625204854097"/><path d="M118.97474567864737,67.70625204854097L115.94655704255224,63.3815504838626"/><path d="M115.94655704255224,63.3815504838626L115.02978395885499,58.182271961575566"/><path d="M122.00293431474248,72.03095361321934L121.08616123104525,66.8316750909323"/><path d="M121.08616123104525,66.8316750909323L120.16938814734797,61.63239656864526"/><path d="M120.16938814734797,61.63239656864526L121.53581961404227,56.53280490988132"/><path d="M122.00293431474248,72.03095361321934L121.08616123104525,66.8316750909323L120.16938814734797,61.63239656864526L117.14119951125286,57.30769500396689"/><path d="M117.14119951125286,57.30769500396689L114.11301087515774,52.98299343928852"/><path d="M114.11301087515774,52.98299343928852L113.1962377914605,47.78371491700145"/><path d="M120.16938814734797,61.63239656864526L121.53581961404227,56.53280490988132L122.90225108073656,51.43321325111734L124.26868254743083,46.333621592353396"/><path d="M124.26868254743083,46.333621592353396L125.63511401412514,41.234029933589454"/><path d="M125.63511401412514,41.234029933589454L129.0287020552563,37.189709193786705"/><path d="M123.83648048213696,82.42951065779341L125.20291194883126,77.32991899902947L126.56934341552552,72.23032734026555L125.65257033182831,67.03104881797849"/><path d="M125.65257033182831,67.03104881797849L124.73579724813104,61.831770295691456"/><path d="M124.73579724813104,61.831770295691456L126.10222871482533,56.732178636927515"/><path d="M126.56934341552552,72.23032734026555L127.93577488221982,67.13073568150159"/><path d="M127.93577488221982,67.13073568150159L129.3022063489141,62.031144022737664"/><path d="M129.3022063489141,62.031144022737664L132.69579439004528,57.986823282934864"/><path d="M126.56934341552552,72.23032734026555L127.93577488221982,67.13073568150159L129.3022063489141,62.031144022737664L128.38543326521688,56.83186550045062"/><path d="M128.38543326521688,56.83186550045062L127.46866018151962,51.63258697816354"/><path d="M127.46866018151962,51.63258697816354L128.8350916482139,46.532995319399596"/><path d="M129.3022063489141,62.031144022737664L132.69579439004528,57.986823282934864L136.08938243117638,53.94250254313208L139.48297047230753,49.898181803329294"/><path d="M139.48297047230753,49.898181803329294L142.87655851343868,45.853861063526544"/><path d="M142.87655851343868,45.853861063526544L147.6613975820876,43.622653962776354"/><path d="M123.83648048213696,82.42951065779341L125.20291194883126,77.32991899902947L126.56934341552552,72.23032734026555L127.93577488221982,67.13073568150159L129.3022063489141,62.031144022737664L128.38543326521688,56.83186550045062L127.46866018151962,51.63258697816354L124.44047154542449,47.30788541348513"/><path d="M124.44047154542449,47.30788541348513L121.41228290932936,42.983183848806725"/><path d="M121.41228290932936,42.983183848806725L120.49550982563214,37.78390532651969"/><path d="M127.46866018151962,51.63258697816354L126.5518870978224,46.43330845587649"/><path d="M126.5518870978224,46.43330845587649L125.63511401412514,41.234029933589454"/><path d="M125.63511401412514,41.234029933589454L127.0015454808194,36.13443827482551"/><path d="M127.46866018151962,51.63258697816354L126.5518870978224,46.43330845587649L125.63511401412514,41.234029933589454L122.60692537803001,36.90932836891105"/><path d="M122.60692537803001,36.90932836891105L119.57873674193488,32.58462680423264"/><path d="M119.57873674193488,32.58462680423264L118.66196365823764,27.385348281945603"/><path d="M125.63511401412514,41.234029933589454L127.0015454808194,36.13443827482551L128.3679769475137,31.03484661606157L129.734408414208,25.935254957297627"/><path d="M129.734408414208,25.935254957297627L131.10083988090227,20.83566329853369"/><path d="M131.10083988090227,20.83566329853369L134.49442792203342,16.79134255873094"/><path d="M129.3022063489141,62.031144022737664L132.69579439004528,57.986823282934864L136.08938243117638,53.94250254313208L139.48297047230753,49.898181803329294L142.87655851343868,45.853861063526544L146.2701465545698,41.809540323723795L149.66373459570096,37.76521958392105L151.03016606239527,32.665627925157104"/><path d="M151.03016606239527,32.665627925157104L152.39659752908955,27.566036266393162"/><path d="M152.39659752908955,27.566036266393162L155.79018557022067,23.521715526590413"/><path d="M149.66373459570096,37.76521958392105L153.0573226368321,33.720898844118295"/><path d="M153.0573226368321,33.720898844118295L156.4509106779632,29.67657810431555"/><path d="M156.4509106779632,29.67657810431555L161.23574974661216,27.44537100356535"/><path d="M149.66373459570096,37.76521958392105L153.0573226368321,33.720898844118295L156.4509106779632,29.67657810431555L157.81734214465754,24.576986445551608"/><path d="M157.81734214465754,24.576986445551608L159.18377361135185,19.477394786787663"/><path d="M159.18377361135185,19.477394786787663L162.57736165248295,15.433074046984913"/><path d="M156.4509106779632,29.67657810431555L161.23574974661216,27.44537100356535L166.02058881526105,25.21416390281516L170.80542788390997,22.98295680206496"/><path d="M170.80542788390997,22.98295680206496L175.59026695255886,20.751749701314765"/><path d="M175.59026695255886,20.751749701314765L180.86975272669517,20.751749701314765"/><path d="M122.10767222096139,226.81306691955342L125.50126026209253,222.76874617975062L128.89484830322368,218.72442543994782L132.28843634435484,214.68010470014505L135.68202438548593,210.63578396034225L139.0756124266171,206.59146322053948L142.46920046774824,202.54714248073665L145.86278850887936,198.5028217409339L149.25637655001054,194.4585010011311L152.64996459114167,190.41418026132834L156.0435526322728,186.36985952152554L159.43714067340395,182.32553878172277L162.8307287145351,178.28121804192L166.22431675566622,174.23689730211717L169.61790479679738,170.1925765623144L173.0114928379285,166.1482558225116L176.40508087905965,162.1039350827088L179.79866892019078,158.059614342906L183.19225696132193,154.01529360310323L186.58584500245306,149.97097286330046L189.97943304358424,145.92665212349766L193.37302108471533,141.8823313836949L196.76660912584651,137.8380106438921L200.1601971669776,133.79368990408932L203.55378520810876,129.74936916428652L204.92021667480304,124.6497775055226L206.28664814149738,119.55018584675865L207.65307960819166,114.4505941879947L209.0195110748859,109.35100252923075L208.10273799118866,104.15172400694372L207.18596490749144,98.95244548465668L204.1577762713963,94.62774391997831"/><path d="M204.1577762713963,94.62774391997831L201.1295876353012,90.30304235529994"/><path d="M201.1295876353012,90.30304235529994L200.21281455160394,85.1037638330129"/><path d="M207.18596490749144,98.95244548465668L206.2691918237942,93.75316696236965"/><path d="M206.2691918237942,93.75316696236965L205.35241874009694,88.5538884400826"/><path d="M205.35241874009694,88.5538884400826L206.71885020679125,83.45429678131865"/><path d="M207.18596490749144,98.95244548465668L206.2691918237942,93.75316696236965L205.35241874009694,88.5538884400826L202.3242301040018,84.22918687540422"/><path d="M202.3242301040018,84.22918687540422L199.29604146790666,79.90448531072586"/><path d="M199.29604146790666,79.90448531072586L198.37926838420944,74.70520678843882"/><path d="M205.35241874009694,88.5538884400826L206.71885020679125,83.45429678131865L208.08528167348553,78.35470512255472L209.4517131401798,73.25511346379078"/><path d="M209.4517131401798,73.25511346379078L210.8181446068741,68.15552180502682"/><path d="M210.8181446068741,68.15552180502682L214.21173264800524,64.11120106522404"/><path d="M209.0195110748859,109.35100252923075L210.3859425415802,104.25141087046681L211.7523740082745,99.15181921170287L210.83560092457722,93.95254068941584"/><path d="M210.83560092457722,93.95254068941584L209.91882784088,88.7532621671288"/><path d="M209.91882784088,88.7532621671288L211.28525930757428,83.65367050836485"/><path d="M211.7523740082745,99.15181921170287L213.11880547496878,94.05222755293893"/><path d="M213.11880547496878,94.05222755293893L214.48523694166306,88.952635894175"/><path d="M214.48523694166306,88.952635894175L217.87882498279419,84.9083151543722"/><path d="M211.7523740082745,99.15181921170287L213.11880547496878,94.05222755293893L214.48523694166306,88.952635894175L213.56846385796578,83.75335737188796"/><path d="M213.56846385796578,83.75335737188796L212.6516907742686,78.55407884960091"/><path d="M212.6516907742686,78.55407884960091L214.0181222409629,73.45448719083697"/><path d="M214.48523694166306,88.952635894175L217.87882498279419,84.9083151543722L221.27241302392534,80.8639944145694L224.66600106505646,76.81967367476663"/><path d="M224.66600106505646,76.81967367476663L228.05958910618762,72.77535293496385"/><path d="M228.05958910618762,72.77535293496385L232.8444281748365,70.54414583421361"/><path d="M209.0195110748859,109.35100252923075L210.3859425415802,104.25141087046681L211.7523740082745,99.15181921170287L213.11880547496878,94.05222755293893L214.48523694166306,88.952635894175L213.56846385796578,83.75335737188796L212.6516907742686,78.55407884960091L209.62350213817345,74.22937728492253"/><path d="M209.62350213817345,74.22937728492253L206.5953135020783,69.90467572024417"/><path d="M206.5953135020783,69.90467572024417L205.67854041838106,64.70539719795713"/><path d="M212.6516907742686,78.55407884960091L211.7349176905713,73.35480032731388"/><path d="M211.7349176905713,73.35480032731388L210.8181446068741,68.15552180502682"/><path d="M210.8181446068741,68.15552180502682L212.18457607356837,63.05593014626289"/><path d="M212.6516907742686,78.55407884960091L211.7349176905713,73.35480032731388L210.8181446068741,68.15552180502682L207.789955970779,63.830820240348466"/><path d="M207.789955970779,63.830820240348466L204.7617673346838,59.506118675670095"/><path d="M204.7617673346838,59.506118675670095L203.8449942509866,54.30684015338306"/><path d="M210.8181446068741,68.15552180502682L212.18457607356837,63.05593014626289L213.55100754026265,57.95633848749894L214.91743900695698,52.856746828735"/><path d="M214.91743900695698,52.856746828735L216.28387047365126,47.75715516997107"/><path d="M216.28387047365126,47.75715516997107L219.67745851478236,43.712834430168314"/><path d="M214.48523694166306,88.952635894175L217.87882498279419,84.9083151543722L221.27241302392534,80.8639944145694L224.66600106505646,76.81967367476663L228.05958910618762,72.77535293496385L231.45317714731877,68.73103219516106L234.84676518844992,64.68671145535828L236.2131966551442,59.58711979659433"/><path d="M236.2131966551442,59.58711979659433L237.57962812183845,54.48752813783039"/><path d="M237.57962812183845,54.48752813783039L240.9732161629696,50.44320739802764"/><path d="M234.84676518844992,64.68671145535828L238.24035322958105,60.642390715555486"/><path d="M238.24035322958105,60.642390715555486L241.63394127071223,56.59806997575271"/><path d="M241.63394127071223,56.59806997575271L246.41878033936112,54.36686287500247"/><path d="M234.84676518844992,64.68671145535828L238.24035322958105,60.642390715555486L241.63394127071223,56.59806997575271L243.00037273740648,51.498478316988766"/><path d="M243.00037273740648,51.498478316988766L244.36680420410076,46.39888665822481"/><path d="M244.36680420410076,46.39888665822481L247.76039224523188,42.35456591842207"/><path d="M241.63394127071223,56.59806997575271L246.41878033936112,54.36686287500247L251.20361940801004,52.135655774252236L255.98845847665893,49.904448673502046"/><path d="M255.98845847665893,49.904448673502046L260.77329754530786,47.67324157275184"/><path d="M260.77329754530786,47.67324157275184L266.05278331944413,47.67324157275184"/><path d="M203.55378520810876,129.74936916428652L206.94737324923992,125.70504842448373L210.34096129037107,121.66072768468095L213.7345493315022,117.61640694487816L217.12813737263338,113.57208620507538L218.49456883932763,108.47249454631145L219.8610003060219,103.3729028875475L218.94422722232466,98.17362436526047"/><path d="M218.94422722232466,98.17362436526047L218.0274541386274,92.97434584297342"/><path d="M218.0274541386274,92.97434584297342L219.3938856053217,87.87475418420948"/><path d="M219.8610003060219,103.3729028875475L221.22743177271622,98.27331122878356"/><path d="M221.22743177271622,98.27331122878356L222.5938632394105,93.17371957001961"/><path d="M222.5938632394105,93.17371957001961L225.98745128054162,89.12939883021684"/><path d="M219.8610003060219,103.3729028875475L221.22743177271622,98.27331122878356L222.5938632394105,93.17371957001961L221.6770901557132,87.97444104773257"/><path d="M221.6770901557132,87.97444104773257L220.760317072016,82.77516252544554"/><path d="M220.760317072016,82.77516252544554L222.1267485387103,77.67557086668158"/><path d="M222.5938632394105,93.17371957001961L225.98745128054162,89.12939883021684L229.38103932167277,85.08507809041404L232.77462736280393,81.04075735061124"/><path d="M232.77462736280393,81.04075735061124L236.16821540393502,76.99643661080846"/><path d="M236.16821540393502,76.99643661080846L240.95305447258391,74.76522951005823"/><path d="M217.12813737263338,113.57208620507538L220.52172541376447,109.52776546527261L223.91531345489562,105.48344472546981L225.28174492158993,100.38385306670587"/><path d="M225.28174492158993,100.38385306670587L226.64817638828418,95.28426140794193"/><path d="M226.64817638828418,95.28426140794193L230.0417644294153,91.23994066813914"/><path d="M223.91531345489562,105.48344472546981L227.30890149602672,101.43912398566702"/><path d="M227.30890149602672,101.43912398566702L230.7024895371579,97.39480324586424"/><path d="M230.7024895371579,97.39480324586424L235.4873286058068,95.16359614511401"/><path d="M223.91531345489562,105.48344472546981L227.30890149602672,101.43912398566702L230.7024895371579,97.39480324586424L232.0689210038522,92.2952115871003"/><path d="M232.0689210038522,92.2952115871003L233.4353524705465,87.19561992833636"/><path d="M233.4353524705465,87.19561992833636L236.82894051167762,83.15129918853356"/><path d="M230.7024895371579,97.39480324586424L235.4873286058068,95.16359614511401L240.27216767445572,92.93238904436377L245.0570067431046,90.70118194361355"/><path d="M245.0570067431046,90.70118194361355L249.84184581175353,88.46997484286331"/><path d="M249.84184581175353,88.46997484286331L255.12133158588983,88.46997484286331"/><path d="M217.12813737263338,113.57208620507538L220.52172541376447,109.52776546527261L223.91531345489562,105.48344472546981L227.30890149602672,101.43912398566702L230.7024895371579,97.39480324586424L232.0689210038522,92.2952115871003L233.4353524705465,87.19561992833636L232.5185793868492,81.99634140604931"/><path d="M232.5185793868492,81.99634140604931L231.601806303152,76.79706288376227"/><path d="M231.601806303152,76.79706288376227L232.96823776984627,71.69747122499832"/><path d="M233.4353524705465,87.19561992833636L234.80178393724077,82.09602826957241"/><path d="M234.80178393724077,82.09602826957241L236.16821540393502,76.99643661080846"/><path d="M236.16821540393502,76.99643661080846L239.56180344506618,72.95211587100567"/><path d="M233.4353524705465,87.19561992833636L234.80178393724077,82.09602826957241L236.16821540393502,76.99643661080846L235.25144232023777,71.79715808852143"/><path d="M235.25144232023777,71.79715808852143L234.33466923654058,66.59787956623438"/><path d="M234.33466923654058,66.59787956623438L235.70110070323486,61.49828790747045"/><path d="M236.16821540393502,76.99643661080846L239.56180344506618,72.95211587100567L242.95539148619733,68.90779513120289L246.34897952732842,64.8634743914001"/><path d="M246.34897952732842,64.8634743914001L249.74256756845958,60.81915365159732"/><path d="M249.74256756845958,60.81915365159732L254.5274066371085,58.587946550847086"/><path d="M230.7024895371579,97.39480324586424L235.4873286058068,95.16359614511401L240.27216767445572,92.93238904436377L245.0570067431046,90.70118194361355L249.84184581175353,88.46997484286331L254.62668488040248,86.23876774211307L259.4115239490514,84.00756064136284L262.8051119901826,79.96323990156006"/><path d="M262.8051119901826,79.96323990156006L266.19870003131365,75.91891916175726"/><path d="M266.19870003131365,75.91891916175726L270.9835390999626,73.68771206100702"/><path d="M259.4115239490514,84.00756064136284L264.1963630177003,81.7763535406126"/><path d="M264.1963630177003,81.7763535406126L268.98120208634924,79.54514643986238"/><path d="M268.98120208634924,79.54514643986238L274.2606878604855,79.54514643986238"/><path d="M259.4115239490514,84.00756064136284L264.1963630177003,81.7763535406126L268.98120208634924,79.54514643986238L272.37479012748037,75.5008257000596"/><path d="M272.37479012748037,75.5008257000596L275.7683781686115,71.4565049602568"/><path d="M275.7683781686115,71.4565049602568L280.5532172372604,69.22529785950655"/><path d="M268.98120208634924,79.54514643986238L274.2606878604855,79.54514643986238L279.5401736346218,79.54514643986238L284.81965940875807,79.54514643986238"/><path d="M284.81965940875807,79.54514643986238L290.09914518289435,79.54514643986238"/><path d="M290.09914518289435,79.54514643986238L294.88398425154327,81.7763535406126"/><path d="M203.55378520810876,129.74936916428652L206.94737324923992,125.70504842448373L210.34096129037107,121.66072768468095L213.7345493315022,117.61640694487816L217.12813737263338,113.57208620507538L220.52172541376447,109.52776546527261L223.91531345489562,105.48344472546981L227.30890149602672,101.43912398566702L230.7024895371579,97.39480324586424L232.0689210038522,92.2952115871003L233.4353524705465,87.19561992833636L234.80178393724077,82.09602826957241L236.16821540393502,76.99643661080846L235.25144232023777,71.79715808852143L234.33466923654058,66.59787956623438L231.30648060044544,62.27317800155602"/><path d="M231.30648060044544,62.27317800155602L228.2782919643503,57.948476436877655"/><path d="M228.2782919643503,57.948476436877655L227.36151888065305,52.74919791459062"/><path d="M234.33466923654058,66.59787956623438L233.4178961528433,61.39860104394735"/><path d="M233.4178961528433,61.39860104394735L232.5011230691461,56.19932252166031"/><path d="M232.5011230691461,56.19932252166031L233.86755453584036,51.09973086289636"/><path d="M234.33466923654058,66.59787956623438L233.4178961528433,61.39860104394735L232.5011230691461,56.19932252166031L229.47293443305097,51.8746209569819"/><path d="M229.47293443305097,51.8746209569819L226.44474579695586,47.549919392303494"/><path d="M226.44474579695586,47.549919392303494L225.52797271325858,42.35064087001645"/><path d="M232.5011230691461,56.19932252166031L233.86755453584036,51.09973086289636L235.23398600253464,46.000139204132424L236.60041746922894,40.90054754536848"/><path d="M236.60041746922894,40.90054754536848L237.96684893592322,35.80095588660454"/><path d="M237.96684893592322,35.80095588660454L241.36043697705435,31.756635146801788"/><path d="M236.16821540393502,76.99643661080846L237.53464687062933,71.89684495204453L238.90107833732364,66.79725329328059L237.98430525362636,61.597974770993545"/><path d="M237.98430525362636,61.597974770993545L237.0675321699291,56.39869624870651"/><path d="M237.0675321699291,56.39869624870651L238.43396363662345,51.299104589942566"/><path d="M238.90107833732364,66.79725329328059L240.2675098040179,61.69766163451665"/><path d="M240.2675098040179,61.69766163451665L241.63394127071223,56.59806997575271"/><path d="M241.63394127071223,56.59806997575271L245.02752931184332,52.553749235949915"/><path d="M238.90107833732364,66.79725329328059L240.2675098040179,61.69766163451665L241.63394127071223,56.59806997575271L240.71716818701492,51.39879145346566"/><path d="M240.71716818701492,51.39879145346566L239.80039510331773,46.199512931178624"/><path d="M239.80039510331773,46.199512931178624L241.166826570012,41.099921272414676"/><path d="M241.63394127071223,56.59806997575271L245.02752931184332,52.553749235949915L248.42111735297448,48.50942849614713L251.81470539410557,44.46510775634438"/><path d="M251.81470539410557,44.46510775634438L255.20829343523673,40.42078701654163"/><path d="M255.20829343523673,40.42078701654163L259.9931325038856,38.189579915791434"/><path d="M236.16821540393502,76.99643661080846L237.53464687062933,71.89684495204453L238.90107833732364,66.79725329328059L240.2675098040179,61.69766163451665L241.63394127071223,56.59806997575271L240.71716818701492,51.39879145346566L239.80039510331773,46.199512931178624L236.7722064672226,41.87481136650021"/><path d="M236.7722064672226,41.87481136650021L233.74401783112745,37.550109801821804"/><path d="M233.74401783112745,37.550109801821804L232.82724474743017,32.350831279534766"/><path d="M239.80039510331773,46.199512931178624L238.88362201962045,41.00023440889158"/><path d="M238.88362201962045,41.00023440889158L237.96684893592322,35.80095588660454"/><path d="M237.96684893592322,35.80095588660454L239.3332804026175,30.701364227840596"/><path d="M239.80039510331773,46.199512931178624L238.88362201962045,41.00023440889158L237.96684893592322,35.80095588660454L234.93866029982811,31.476254321926135"/><path d="M234.93866029982811,31.476254321926135L231.91047166373298,27.151552757247728"/><path d="M231.91047166373298,27.151552757247728L230.99369858003567,21.952274234960687"/><path d="M237.96684893592322,35.80095588660454L239.3332804026175,30.701364227840596L240.6997118693118,25.601772569076655L242.0661433360061,20.50218091031271"/><path d="M242.0661433360061,20.50218091031271L243.43257480270037,15.40258925154877"/><path d="M243.43257480270037,15.40258925154877L246.82616284383147,11.358268511746022"/><path d="M241.63394127071223,56.59806997575271L245.02752931184332,52.553749235949915L248.42111735297448,48.50942849614713L251.81470539410557,44.46510775634438L255.20829343523673,40.42078701654163L258.6018814763678,36.37646627673888L261.995469517499,32.33214553693613L263.3619009841932,27.23255387817219"/><path d="M263.3619009841932,27.23255387817219L264.72833245088754,22.132962219408245"/><path d="M264.72833245088754,22.132962219408245L268.1219204920186,18.0886414796055"/><path d="M261.995469517499,32.33214553693613L265.38905755863004,28.287824797133382"/><path d="M265.38905755863004,28.287824797133382L268.78264559976117,24.243504057330632"/><path d="M268.78264559976117,24.243504057330632L273.5674846684101,22.012296956580435"/><path d="M261.995469517499,32.33214553693613L265.38905755863004,28.287824797133382L268.78264559976117,24.243504057330632L270.1490770664555,19.14391239856669"/><path d="M270.1490770664555,19.14391239856669L271.5155085331497,14.044320739802748"/><path d="M271.5155085331497,14.044320739802748L274.90909657428085,10"/><path d="M268.78264559976117,24.243504057330632L273.5674846684101,22.012296956580435L278.352323737059,19.781089855830242L283.137162805708,17.54988275508005"/><path d="M283.137162805708,17.54988275508005L287.9220018743569,15.318675654329851"/><path d="M287.9220018743569,15.318675654329851L293.2014876484932,15.318675654329851"/><path d="M230.7024895371579,97.39480324586424L235.4873286058068,95.16359614511401L240.27216767445572,92.93238904436377L245.0570067431046,90.70118194361355L249.84184581175353,88.46997484286331L254.62668488040248,86.23876774211307L259.4115239490514,84.00756064136284L264.1963630177003,81.7763535406126L268.98120208634924,79.54514643986238L273.76604115499816,77.31393933911215L278.5508802236471,75.08273223836191L283.335719292296,72.85152513761167L288.120558360945,70.62031803686143L291.5141464020761,66.57599729705865L294.90773444320723,62.531676557255864L296.2741659099015,57.43208489849192"/><path d="M296.2741659099015,57.43208489849192L297.64059737659585,52.33249323972798"/><path d="M297.64059737659585,52.33249323972798L301.0341854177269,48.28817249992523"/><path d="M294.90773444320723,62.531676557255864L298.30132248433836,58.48735581745308"/><path d="M298.30132248433836,58.48735581745308L301.6949105254695,54.44303507765029"/><path d="M301.6949105254695,54.44303507765029L306.4797495941184,52.21182797690006"/><path d="M294.90773444320723,62.531676557255864L298.30132248433836,58.48735581745308L301.6949105254695,54.44303507765029L303.06134199216376,49.34344341888635"/><path d="M303.06134199216376,49.34344341888635L304.427773458858,44.24385176012241"/><path d="M304.427773458858,44.24385176012241L307.8213614999891,40.19953102031966"/><path d="M301.6949105254695,54.44303507765029L306.4797495941184,52.21182797690006L311.2645886627673,49.98062087614983L316.04942773141624,47.74941377539963"/><path d="M316.04942773141624,47.74941377539963L320.83426680006517,45.518206674649434"/><path d="M320.83426680006517,45.518206674649434L326.1137525742015,45.518206674649434"/><path d="M288.120558360945,70.62031803686143L292.9053974295939,68.38911093611121L297.6902364982428,66.15790383536097L301.08382453937395,62.113583095558184"/><path d="M301.08382453937395,62.113583095558184L304.4774125805051,58.0692623557554"/><path d="M304.4774125805051,58.0692623557554L309.262251649154,55.83805525500517"/><path d="M297.6902364982428,66.15790383536097L302.4750755668918,63.92669673461074"/><path d="M302.4750755668918,63.92669673461074L307.25991463554067,61.695489633860504"/><path d="M307.25991463554067,61.695489633860504L312.53940040967694,61.695489633860504"/><path d="M297.6902364982428,66.15790383536097L302.4750755668918,63.92669673461074L307.25991463554067,61.695489633860504L310.6535026766718,57.65116889405772"/><path d="M310.6535026766718,57.65116889405772L314.0470907178029,53.60684815425494"/><path d="M314.0470907178029,53.60684815425494L318.83192978645184,51.37564105350475"/><path d="M307.25991463554067,61.695489633860504L312.53940040967694,61.695489633860504L317.8188861838133,61.695489633860504L323.09837195794944,61.695489633860504"/><path d="M323.09837195794944,61.695489633860504L328.3778577320858,61.695489633860504"/><path d="M328.3778577320858,61.695489633860504L333.1626968007347,63.92669673461074"/><path d="M288.120558360945,70.62031803686143L292.9053974295939,68.38911093611121L297.6902364982428,66.15790383536097L302.4750755668918,63.92669673461074L307.25991463554067,61.695489633860504L310.6535026766718,57.65116889405772L314.0470907178029,53.60684815425494L315.41352218449725,48.50725649549099"/><path d="M315.41352218449725,48.50725649549099L316.77995365119153,43.40766483672705"/><path d="M316.77995365119153,43.40766483672705L320.17354169232266,39.3633440969243"/><path d="M314.0470907178029,53.60684815425494L317.44067875893404,49.562527414452184"/><path d="M317.44067875893404,49.562527414452184L320.83426680006517,45.518206674649434"/><path d="M320.83426680006517,45.518206674649434L325.61910586871414,43.286999573899244"/><path d="M314.0470907178029,53.60684815425494L317.44067875893404,49.562527414452184L320.83426680006517,45.518206674649434L322.20069826675945,40.41861501588549"/><path d="M322.20069826675945,40.41861501588549L323.5671297334538,35.31902335712155"/><path d="M323.5671297334538,35.31902335712155L326.96071777458485,31.274702617318805"/><path d="M320.83426680006517,45.518206674649434L325.61910586871414,43.286999573899244L330.40394493736306,41.05579247314905L335.188784006012,38.82458537239886"/><path d="M335.188784006012,38.82458537239886L339.9736230746609,36.59337827164866"/><path d="M339.9736230746609,36.59337827164866L345.2531088487971,36.59337827164866"/><path d="M307.25991463554067,61.695489633860504L312.53940040967694,61.695489633860504L317.8188861838133,61.695489633860504L323.09837195794944,61.695489633860504L328.3778577320858,61.695489633860504L333.657343506222,61.695489633860504L338.93682928035827,61.695489633860504L343.72166834900725,59.46428253311027"/><path d="M343.72166834900725,59.46428253311027L348.50650741765617,57.233075432360046"/><path d="M348.50650741765617,57.233075432360046L353.78599319179244,57.233075432360046"/><path d="M338.93682928035827,61.695489633860504L344.2163150544946,61.695489633860504"/><path d="M344.2163150544946,61.695489633860504L349.4958008286308,61.695489633860504"/><path d="M349.4958008286308,61.695489633860504L354.28063989727974,63.92669673461074"/><path d="M338.93682928035827,61.695489633860504L344.2163150544946,61.695489633860504L349.4958008286308,61.695489633860504L354.28063989727974,59.46428253311027"/><path d="M354.28063989727974,59.46428253311027L359.06547896592866,57.233075432360046"/><path d="M359.06547896592866,57.233075432360046L364.34496474006494,57.233075432360046"/><path d="M349.4958008286308,61.695489633860504L354.28063989727974,63.92669673461074L359.06547896592866,66.15790383536097L363.8503180345776,68.38911093611121"/><path d="M363.8503180345776,68.38911093611121L368.6351571032265,70.62031803686143"/><path d="M368.6351571032265,70.62031803686143L372.02874514435763,74.66463877666423"/></g></svg>